<?xml version="1.0" encoding="utf-8"?>
<!-- Generator: Adobe Illustrator 23.0.1, SVG Export Plug-In . SVG Version: 6.00 Build 0)  -->
<svg version="1.1" id="Layer_1" xmlns="http://www.w3.org/2000/svg" xmlns:xlink="http://www.w3.org/1999/xlink" x="0px" y="0px"
	 viewBox="0 0 1218.9 1080" style="enable-background:new 0 0 1218.9 1080;" xml:space="preserve">
<style type="text/css">
	.st0{fill:#00A8B5;}
	.st1{fill:#EAA244;}
	.st2{fill:#D67C2B;}
	.st3{fill:#FCB854;}
	.st4{fill:#040000;}
	.st5{fill:#E9B291;}
	.st6{fill:#5864AB;}
	.st7{fill:#CC9579;}
	.st8{fill:#E00A81;}
	.st9{fill:#FFFFFF;}
	.st10{fill:#D04142;}
</style>
<path class="st0" d="M1078.3,434.6c-27.6-232.5-253.2-210.7-335.4-202.7c-178.3,17.4-233.6-107-462-82
	C175.4,161.5,40.7,317.8,139.1,540.3c98.4,222.5,302,234.1,515.8,233.9C838.1,774.1,1109.2,694.3,1078.3,434.6z"/>
<g>
	<rect x="824.7" y="510.9" class="st1" width="196.6" height="120.2"/>
</g>
<g>
	<rect x="983.4" y="510.9" class="st2" width="20.6" height="34"/>
</g>
<g>
	<polygon class="st3" points="966.1,510.9 824.7,510.9 824.7,631.1 931.9,631.1 966.1,631.1 	"/>
</g>
<g>
	<polygon class="st4" points="859.6,555.4 883.7,631.6 834.4,630.5 	"/>
</g>
<g>
	<rect x="893" y="751.3" class="st1" width="219.1" height="120.2"/>
</g>
<g>
	<rect x="1069.9" y="751.3" class="st2" width="22.9" height="34"/>
</g>
<g>
	<rect x="893" y="751.3" class="st3" width="157.5" height="120.2"/>
</g>
<g>
	<rect x="870.1" y="631.6" class="st1" width="196.6" height="120.2"/>
</g>
<g>
	<rect x="1028.8" y="631.6" class="st2" width="20.6" height="34"/>
</g>
<g>
	<rect x="870.1" y="631.6" class="st3" width="141.3" height="120.2"/>
</g>
<g>
	<polygon class="st4" points="931.9,630.1 949.2,750.7 909.6,751.7 934.1,871.4 883.6,871.4 877.9,719.1 	"/>
</g>
<g>
	<rect x="672.3" y="751.3" class="st1" width="225.4" height="120.2"/>
</g>
<g>
	<rect x="854.3" y="751.3" class="st2" width="23.6" height="34"/>
</g>
<g>
	<rect x="672.3" y="751.3" class="st3" width="162" height="120.2"/>
</g>
<g>
	<rect x="735.3" y="631.6" class="st1" width="196.6" height="120.2"/>
</g>
<g>
	<rect x="894" y="631.6" class="st2" width="20.6" height="34"/>
</g>
<g>
	<rect x="735.3" y="631.6" class="st3" width="141.3" height="120.2"/>
</g>
<g>
	<rect x="864.2" y="422.9" class="st1" width="138.4" height="88"/>
</g>
<g>
	<rect x="876.4" y="422.9" class="st2" width="14.5" height="24.9"/>
</g>
<g>
	<rect x="903.1" y="422.9" class="st3" width="99.5" height="88"/>
</g>
<g>
	<rect x="740.7" y="555.4" class="st1" width="118.8" height="75.6"/>
</g>
<g>
	<rect x="751.2" y="555.4" class="st2" width="12.4" height="21.4"/>
</g>
<g>
	<rect x="774.1" y="555.4" class="st3" width="85.4" height="75.6"/>
</g>
<g>
	<rect x="559.9" y="871.4" class="st4" width="617.9" height="23.3"/>
</g>
<path class="st4" d="M691.9,887.7c-12.7,0-23.1,10.3-23.1,23.1c0,12.7,10.3,23.1,23.1,23.1c12.7,0,23.1-10.3,23.1-23.1
	C714.9,898,704.6,887.7,691.9,887.7z"/>
<path class="st4" d="M1045.7,887.7c-12.7,0-23.1,10.3-23.1,23.1c0,12.7,10.3,23.1,23.1,23.1c12.7,0,23.1-10.3,23.1-23.1
	C1068.8,898,1058.5,887.7,1045.7,887.7z"/>
<g>
	<path class="st4" d="M658.2,878.4h-23.6l-96.3-345c-2-7.2,3.4-14.4,10.9-14.4c5.1,0,9.6,3.4,10.9,8.3L658.2,878.4z"/>
</g>
<g>
	<path class="st5" d="M367,912.2c-15.7,21.8-40.3,2-33.5-23c2-7.4,17.6-27.1,31.7-44.6l35.4,30.6C387.3,892.5,371.8,905.5,367,912.2
		z"/>
</g>
<g>
	<path d="M369,894c1.5,1,0.6-11.4,11.4-10.8c10.9,0.5,16.6-2.7,20,10.8c3.4,13.6,18.4,22.5,27,27.9c5.5,3.5,7.5,3.1,8.2,9
		c0.4,3-2,5.6-5.1,5.7c-66,1.3-41.3,0.1-104.9-12.5c-2.7,0-5-2.1-5.1-4.9c-0.4-8.7,3.8-8.4,5.1-15.6c1.7-9.8,8.8-24.5,14-25.6
		C344.8,876.8,365,891.2,369,894z"/>
</g>
<g>
	<path class="st6" d="M428.7,574.3c0,0,77.2,159.1,70.6,184.7c-4,15.4-73.6,86.1-106.1,124.1c0,0-13-0.7-24.4-6.4
		c-11.4-5.8-24.9-19.3-24.9-19.3c38.6-46.9,82.9-112.1,82.9-112.1l-92.7-176.1L428.7,574.3z"/>
</g>
<g>
	<path d="M376.4,649.4l27.7-64c0,0,16,10.2,0.9,45C392.5,659.3,376.4,649.4,376.4,649.4z"/>
</g>
<g>
	<path d="M384.3,350.9c0,0-2.4-9.8-12-17.6c-9.6-7.7-5.2-22.3,1.7-32.8c7-10.7,13.1-17.4,24-17.4c10.9,0,23.9,0,27.4,5.1
		c0,0,8.2-9,14.8-1.3c6.7,7.7,15.7,23.5,10.5,31.2c-5.1,7.7-14.8,8.4-14.8,8.4L384.3,350.9z"/>
</g>
<g>
	<path class="st7" d="M533.3,517.6l14.2,4.6c-5,8.5,18.7,22.9,27.1,14.1c3.1-3.2,5.5-6.6,8.9-10.3c5.2-5.7,8.2-9.5,4.9-15.4
		c-3.3-5.9-14.4-14.4-22-14.9c-7.6-0.5-104.5-22-120.5-32.3c0,0-6.2-11-11.7-20.2L398,463.1c9.5,15.9,24.3,33.7,27.5,36.1
		C446,514.5,486.7,511.9,533.3,517.6z"/>
</g>
<g>
	<path class="st5" d="M142.1,874c-12.2,10.5-21.8,18.8-26.8,23.3c-19.9,18.1-41.8-6.8-30-29.8c2.7-5.3,16.2-16.8,27.7-29.2
		L142.1,874z"/>
</g>
<g>
	<path class="st6" d="M148.2,877.9c0,0-21.9-10.2-30.9-21.2c-9.7-11.8-12.9-17-12.9-17c49.2-41.2,103-74.6,128.5-93.6
		c0.6-0.5,38.8-77.9,37.2-102.8c-2.6-41.1,26.3-87.3,26.3-87.3l123.5,24.3c0,0-92.8,146.3-119.8,192.6
		C290,790.5,209.9,847.8,148.2,877.9z"/>
</g>
<g>
	<path d="M163.7,919.2c-4.9-3.1-18-9.1-28.9-16.2c-0.8-4.3-0.5-8.4,1.6-12.1c7-12.1-2.7-13.5-11.8-19.5c-9.1-6-14.6,5.2-15.4,3.5
		c-2.1-4.4-14.8-13.1-19.8-14.8c-5-1.7-7,8.5-13.4,16c-4.7,5.5-8,12.8-12.2,20.7c-1.4,2.7-0.5,6.1,2.2,7.6l39.4,20.5l24.9,8.9H159
		h7.2c3.5,0,6.1-3.1,5.7-6.5C171,921.5,169,922.5,163.7,919.2z"/>
</g>
<g>
	<path class="st8" d="M309.4,468c13.3-54.4,28.8-71.6,51.9-88.7c20.2-15.1,49.7-11.8,79,13.3c21,18,18.6,64.1,14.4,87.4
		c-5.4,30.3-16.3,105.9-16.3,105.9c8.3,0.4-14.9-0.5-43.8-0.5c-29.5,0-94.8-22.4-102.6-24.3C291,560.9,299.2,509.8,309.4,468z"/>
</g>
<g>
	<path class="st5" d="M424.4,371c-0.2,3.5-0.5,6.8-0.8,9.6c-0.3,3.6-0.6,6.4-0.8,7.9c-0.8,6.2-3.8,18-10,17.2
		c-6.2-0.8-36-18.5-34.7-25.1c1.3-6.6,8.8-32.1,8.8-32.1c1.8-15.6,37.6-14.9,38.3-5.1C425.7,349,425.1,360.8,424.4,371z"/>
</g>
<g>
	<path d="M424.4,371c0.2,3.5-0.5,6.8-0.8,9.6c-21.8,0.1-31.4-17.3-32.4-23.4c-2.2-13.2,23.7-9.7,31.8-6.8
		C423.6,356.8,424,364.4,424.4,371z"/>
</g>
<g>
	<path class="st5" d="M402.5,316.4l-0.8,2.5l-7.5,1.6c-1.5,4.2-0.4,7.8-2.1,12.7c-0.6,1.7-2.9,1.8-3.7,0.3c-1.7-3.2-4.9-6.3-9.8-1.7
		c-8.3,7.7,0.6,18.6,5.8,19.2c5.1,0.6,8.9,12.7,23.7,19.3c12.9,5.7,20.5,3.8,27.8-5.9c5.5-7.4,6.8-40.4-1.1-54.4h-23.2
		C407.4,309.8,403.8,312.5,402.5,316.4z"/>
</g>
<g>
	<path class="st9" d="M414.7,354.2c3.2,0.1,10.2,1.3,15.4,2.8c3.9,1.1-2.2,7.6-9.1,7.1C415,363.6,409.9,354,414.7,354.2z"/>
</g>
<g>
	<path d="M428.6,326.2c-1,3.7-0.1,7.3,2,10.4c0.4,0.6,0.9,1.2,0.9,2c0,0.7-0.3,1.4-0.7,1.9c-1,1.4-2.8,2-4.4,2.5
		c-1.8,0.6-1.1,3.4,0.8,2.9c1.9-0.6,3.9-1.3,5.4-2.8c1.4-1.4,2.2-3.4,1.8-5.4c-0.4-1.9-1.9-3.2-2.6-5c-0.7-1.8-0.8-3.8-0.3-5.7
		C432,325.1,429.1,324.3,428.6,326.2z"/>
</g>
<g>
	<path d="M380.8,338.9c0.1-0.1,0.3-0.1,0.5-0.1c0.2,0-0.4,0-0.1,0c0.1,0,0.2,0,0.3,0c0.3,0-0.4-0.1-0.1,0c0.1,0,0.1,0,0.2,0
		c0.1,0,0.1,0,0.2,0.1c0.3,0.1-0.3-0.2,0,0c0.1,0.1,0.3,0.1,0.4,0.2c0,0,0.1,0,0.1,0.1c0.1,0.1,0.1,0-0.1-0.1c0,0.1,0.1,0.1,0.2,0.1
		c0.1,0.1,0.2,0.2,0.3,0.4c0.2,0.2-0.1-0.2,0-0.1c0,0.1,0.1,0.1,0.1,0.2c0,0.1,0.2,0.5,0.2,0.5c-0.1,0-0.1-0.3,0,0
		c0,0.1,0.1,0.2,0.1,0.3c0.1,0.2,0.1,0.4,0.1,0.6c0,0.1,0,0.2,0,0.3c0.1,0.4,0-0.3,0,0c0.1,0.8,0.1,1.6,0.1,2.4
		c0,0.8,0.7,1.5,1.5,1.5c0.8,0,1.5-0.7,1.5-1.5c0-1.9,0-4.1-1.1-5.7c-1.1-1.6-3.2-2.7-5.2-2c-0.4,0.1-0.7,0.3-0.9,0.7
		c-0.2,0.3-0.3,0.8-0.2,1.2C379.2,338.5,380,339.2,380.8,338.9z"/>
</g>
<g>
	<path d="M409.3,448.1l-13.5-34.7c0,0,33.3,38.1,33.1,68.6c-0.1,8,22.2,2.4,26.6,9.6c9.9,15.9,1.2,40.6-44.5,33.2
		c-34.3-5.5-53.5-30.7-58.3-48.4c-7.3-27-5.5-52-5.5-52s12.2,37.7,14.9,44.2C364.1,473,409.3,448.1,409.3,448.1z"/>
</g>
<g>
	<path class="st5" d="M506.1,524.1l14.2,4.6c-5,8.5,18.7,22.9,27.1,14.1c3.1-3.2,5.5-6.6,8.9-10.3c5.2-5.7,8.2-9.5,4.9-15.4
		c-3.3-5.9-14.4-14.4-22-14.9c-7.6-0.5-104.5-22-120.5-32.3c0,0-5.3-10.2-9.5-21.8l-36.4,24.8c9.5,15.9,22.3,30.4,25.5,32.8
		C418.8,521,459.5,518.4,506.1,524.1z"/>
</g>
<g>
	<path d="M240.9,748.3c5.1-1.1,10.3-2.1,15.4-3.2c0.8-0.2,1.3-1.1,1-1.8c-0.2-0.8-1-1.2-1.8-1c-5.1,1.1-10.3,2.1-15.4,3.2
		c-0.8,0.2-1.3,1.1-1,1.8C239.2,748.1,240.1,748.5,240.9,748.3z"/>
</g>
<g>
	<path d="M271.8,646.2c3.7,10.1,8.2,20,13.6,29.3c1,1.7,3.6,0.2,2.6-1.5c-5.3-9.1-9.7-18.7-13.3-28.6
		C274.1,643.6,271.2,644.4,271.8,646.2z"/>
</g>
<g>
	<path d="M433,745.2c4.8-2.3,9.6-4.5,14.5-6.8c0.7-0.3,0.9-1.4,0.5-2.1c-0.4-0.8-1.3-0.9-2.1-0.5c-4.8,2.3-9.6,4.5-14.5,6.8
		c-0.7,0.3-0.9,1.4-0.5,2.1C431.4,745.4,432.3,745.5,433,745.2z"/>
</g>
<g>
	<path d="M354.2,477.5c-5.1,24.2-9.7,48.5-13.7,72.9c-1.2,6.9-2.3,13.8-3.3,20.7c-0.3,1.9,2.6,2.7,2.9,0.8
		c3.8-24.4,8.1-48.8,12.9-73.1c1.4-6.9,2.7-13.7,4.2-20.5C357.4,476.4,354.6,475.6,354.2,477.5z"/>
</g>
<g>
	<path d="M364.4,461.7c11.9-5.8,23.7-11.8,35.4-18c1.7-0.9,0.2-3.5-1.5-2.6c-11.7,6.3-23.5,12.3-35.4,18
		C361.1,460,362.6,462.6,364.4,461.7z"/>
</g>
<g>
	<path d="M395.7,404.7c-5.8-9.7-17.6-15-28.7-13.7c-3.2,0.4-6.3,1.3-9.2,2.8c-1.7,0.9-0.2,3.5,1.5,2.6c11.6-6,27.2-1.4,33.9,9.8
		C394.1,407.9,396.7,406.4,395.7,404.7z"/>
</g>
<g>
	<path d="M416.3,471.7c-4.1,0.2-8.2,1.1-12.1,2.6c-0.8,0.3-1.3,1-1,1.8c0.2,0.7,1.1,1.3,1.8,1c3.6-1.4,7.4-2.3,11.3-2.5
		c0.8,0,1.5-0.7,1.5-1.5C417.8,472.4,417.1,471.6,416.3,471.7z"/>
</g>
<g>
	<path d="M536.8,526.1c1.5,1.3,2.5,2.7,3.4,4.5c0.4,0.8,0.7,1.5,0.9,2.5c0.3,1,0.4,1.8,0.5,2.7c0.1,0.8,0.6,1.5,1.5,1.5
		c0.8,0,1.6-0.7,1.5-1.5c-0.3-4.5-2.4-8.8-5.7-11.8c-0.6-0.5-1.5-0.6-2.1,0C536.3,524.6,536.2,525.6,536.8,526.1z"/>
</g>
<g>
	<path d="M542.5,522.4c2.7,3.1,4.5,6.9,5.3,10.9c0.2,0.8,1.1,1.3,1.8,1c0.8-0.2,1.2-1.1,1-1.8c-1-4.5-3.1-8.7-6.1-12.2
		c-0.5-0.6-1.6-0.5-2.1,0C541.9,520.9,542,521.8,542.5,522.4z"/>
</g>
<g>
	<path d="M548.6,518.1c0.4,0.3,0.7,0.6,1.1,0.9c0.2,0.2,0.3,0.4,0.5,0.6c0.1,0.2,0.3,0.4,0.3,0.4c0.3,0.4,0.5,0.8,0.8,1.2
		c0.1,0.2,0.2,0.4,0.4,0.7c0,0.1,0.1,0.2,0.1,0.3c0,0,0.1,0.3,0.1,0.2c0.4,0.9,0.6,1.8,0.7,2.7c0-0.2,0,0.1,0,0.2c0,0.1,0,0.2,0,0.3
		c0,0.2,0,0.5,0,0.8c0,0.2,0,0.4,0,0.7c0,0.1,0,0.3,0,0.4c0,0,0,0.4,0,0.2c-0.1,0.8,0.2,1.6,1,1.8c0.7,0.2,1.7-0.2,1.8-1
		c0.6-4.6-1.1-9.5-4.8-12.4c-0.6-0.5-1.5-0.6-2.1,0C548.1,516.5,548,517.6,548.6,518.1z"/>
</g>
<g>
	<path d="M524.9,532.3c0.2-0.1,0.3-0.2,0.5-0.3c0.1,0,0.4-0.1,0,0c0.1,0,0.1,0,0.2-0.1c0.1,0,0.2-0.1,0.3-0.1c0.3-0.1-0.2,0,0,0
		c0.2,0,0.4,0,0.5,0c0.3,0,0.1-0.1,0,0c0.1,0,0.2,0,0.3,0.1c0.2,0,0.4,0.1,0.5,0.2c0.2,0.1,0.2,0.1,0,0c0.1,0,0.2,0.1,0.3,0.2
		c0.2,0.1,0.4,0.2,0.5,0.3c0.2,0.1,0.4,0.2,0.5,0.3c0,0,0.3,0.2,0.2,0.1c-0.2-0.1,0.1,0.1,0.2,0.1c0.3,0.3,0.7,0.6,1,0.9
		c0.3,0.3,0.6,0.7,0.9,1c0.1,0.1,0.1,0.2,0.2,0.3c-0.1-0.2,0,0,0,0.1c0.1,0.2,0.3,0.4,0.4,0.6c0.4,0.6,1.3,1,2.1,0.5
		c0.6-0.4,1-1.4,0.5-2.1c-1.2-1.8-2.8-3.5-4.7-4.6c-1.9-1.1-4.2-1.4-6,0c-0.6,0.5-1,1.3-0.5,2.1
		C523.2,532.3,524.2,532.8,524.9,532.3z"/>
</g>
<g>
	<path d="M352.7,851.8c11.3,11,26,18.5,41.7,21c1.9,0.3,2.7-2.6,0.8-2.9c-15.2-2.4-29.3-9.5-40.3-20.2
		C353.5,848.3,351.4,850.4,352.7,851.8z"/>
</g>
<g>
	<path d="M118.4,829c-1.5,0.6-1.7,2.4-1.2,3.8c0.6,1.7,2,3.1,3,4.4c2.6,3.3,5.3,6.4,8.1,9.5c5.6,6.2,11.7,12.1,18.1,17.5
		c3.6,3,7.4,6,11.2,8.7c1.6,1.1,3.1-1.5,1.5-2.6c-12.1-8.8-23.1-19-32.8-30.3c-1.3-1.6-2.6-3.1-3.9-4.7c-0.7-0.8-1.4-1.7-2-2.6
		c-0.2-0.3-0.3-0.6-0.5-0.9c-0.1-0.1,0-0.3-0.1-0.4c0-0.1-0.6,0.3,0,0.1C121.7,830.8,120.1,828.3,118.4,829z"/>
</g>
<g>
	<path d="M331.6,590.5c-4.6,26.7-10.6,53.1-18,79.2c-6.5,23.1-14.5,46.3-28.6,66c-11.8,16.6-27.9,29.5-45.1,40.1
		c-17.4,10.8-35.9,19.6-54,29.3c-17.9,9.6-35.6,20-50.7,33.7c-1.8,1.6-3.6,3.3-5.3,5.1c-1.4,1.4,0.8,3.5,2.1,2.1
		c14.5-14.5,31.9-25.5,49.8-35.3c18-9.8,36.6-18.6,54.2-29c17.3-10.3,33.9-22.3,46.7-38.1c15.2-18.7,24.3-41.4,31.2-64.3
		c7.8-25.7,13.9-51.9,18.8-78.3c0.6-3.2,1.2-6.5,1.8-9.7C334.8,589.4,331.9,588.6,331.6,590.5z"/>
</g>
<g>
	<path d="M352,585.7c-3.1,16.1-13.2,30.4-27.4,38.6c-1.7,1-0.2,3.6,1.5,2.6c11.6-6.7,20.6-17.3,25.6-29.6c1.4-3.5,2.5-7.1,3.2-10.8
		C355.2,584.6,352.4,583.8,352,585.7z"/>
</g>
<g>
	<path d="M404.3,636.7c10.5,12.8,19.7,26.7,27.5,41.3c7.8,14.6,14.3,29.9,19.1,45.8c1.2,3.9,2.4,7.9,3.4,11.9
		c1.1,4.4,1.7,8.8-0.4,13c-1.9,3.8-4.6,7.3-7.1,10.7c-2.6,3.7-5.3,7.5-7.9,11.2c-10.6,14.7-21.5,29.2-32.8,43.4
		c-11.2,14.1-22.8,28-34.7,41.5c-1.5,1.7-3,3.4-4.5,5.1c-1.3,1.4,0.8,3.6,2.1,2.1c12.3-13.8,24.2-28,35.8-42.4
		c11.5-14.3,22.7-29,33.5-43.9c5.4-7.4,10.8-14.8,15.8-22.4c2.4-3.6,4.3-7.4,4.2-11.9c-0.1-4.4-1.5-8.8-2.7-13
		c-4.6-16.2-10.7-31.9-18.3-47c-7.6-15.1-16.7-29.4-27.1-42.8c-1.3-1.6-2.6-3.3-3.9-4.9C405.2,633.1,403.1,635.2,404.3,636.7z"/>
</g>
<g>
	<path class="st4" d="M672.3,395.8c0,0,21.9-10.1,11.2-24.8c-10.6-14.8-22.9-21.9-31.9-16.6c-8.9,5.3-42.4-1.2-50.5,10.1
		c-8.1,11.2-19.3,69.8-22.3,81.6c-3,11.8,25.1,23.1,40.8,23.1c15.7,0,59.7-1.8,57.3-13c-2.4-11.2-13-40.3-13-40.3L672.3,395.8z"/>
</g>
<g>
	<path class="st5" d="M455.6,821.4c0,0-46.7,22.5-46.7,31.3c0,8.9,14.2,18.2,23.1,17.1c8.9-1.1,35.5-11,35.5-11L455.6,821.4z"/>
</g>
<g>
	<path class="st6" d="M451.5,872.1c-4.1,17.4,4.9,40.3,16,46.7c7.7,4.4,10.2,15.7,3.7,15.7h-21.9c-22.9,0-53.5-52.3-62.2-64.6
		c-8.7-12.3,15.1-19.4,28-27.4c12.9-8,12.6,17.7,12.6,17.7S456.3,851.6,451.5,872.1z"/>
</g>
<g>
	<path class="st10" d="M680.4,630.6c0,0-28.1,72.7-54.4,123.7c-12.5,24.3-24.7,43.6-33.2,48c-46,23.4-129.8,61.5-129.8,61.5
		c-4.2-5.8-15.6-23.7-20-37.1c35.3-24.9,70.8-46.6,106.4-61.5c0,0,25.9-88.4,43.4-116.8c2.2-3.6,5.3-6.6,9-9.1
		C627,622.5,680.4,630.6,680.4,630.6z"/>
</g>
<g>
	<path class="st4" d="M680.4,630.6c0,0-28.1,72.7-54.4,123.7c-15.7-6.6-42.5-20.5-44.7-38.2c-1.9-15.5,11-52.3,20.5-76.7
		C627,622.5,680.4,630.6,680.4,630.6z"/>
</g>
<g>
	<path class="st8" d="M680.3,452.1c16.2,5.8,48.1,31,75.2,56.8l-30.3,44.2C691.9,539.3,648.1,440.6,680.3,452.1z"/>
</g>
<g>
	<path class="st4" d="M690.7,472.7c0,0,28.2,13.4,32.9,37.3c4.7,23.8-2.7,40.9-2.7,40.9s-9.3-5.3-19.6-17.6
		C692.1,522.2,690.7,472.7,690.7,472.7z"/>
</g>
<g>
	<path class="st10" d="M560.6,629.5c0,0-15.6,59.1,20.7,86.5c28.4,21.5,132.7,31.6,132.7,31.6s6.3,56.9,10,109.6h44.2
		c8.9-59.8,8.6-101.2,8.5-125.6c-0.1-13.4-12.4-23.2-19.6-28.7c-36.1-27.2-115-56.3-115-56.3l-23.8-5.5L560.6,629.5z"/>
</g>
<g>
	<path class="st5" d="M726.9,908.6c3,29.4,18.6,39.2,31.6,0c3.5-10.6,5.3-20.7,9.7-51.4H724C724.8,880.2,726,899.7,726.9,908.6z"/>
</g>
<g>
	<path class="st6" d="M768.5,883.2c11.8,13.4,37.4,25.7,51.3,32.8c13.9,7.1,6.5,18.4,0,18.4h-90.4c-15.1,0-7.1-23.5-6.2-38.7
		c0.9-15.2,21.7,0,21.7,0S754.5,867.4,768.5,883.2z"/>
</g>
<g>
	<path class="st8" d="M693.3,462c-12.9-20.9-90.1-27.4-110.3-3c-17.1,20.7,18,92.3-22.4,170.5c37.9,17.2,95.4,22.5,119.8,8.8
		c1-27.4,12.6-63.1,18.5-97c2.4-13.5,20.3-26.2,12.5-39.3C705.6,492.2,699.1,471.4,693.3,462z"/>
</g>
<g>
	<path class="st7" d="M625.6,453.8c-2.4-16,0-28.9-2.3-40.2c-2.4-11.3,30.8-14.9,34.7,8.8c3.9,23.7,8,35.3,3.3,45.2
		C656.5,477.4,628.9,475.2,625.6,453.8z"/>
</g>
<g>
	<path class="st4" d="M585.6,657.1c2.5,8.4,5.1,16.8,9.4,24.5c4.4,7.8,10.6,13.9,18.1,18.6c7.9,4.9,16.7,8.3,25.4,11.5
		c9.3,3.4,18.7,6.2,28.3,8.6c9.5,2.4,19.2,4.3,28.8,6c4.9,0.9,9.8,1.6,14.8,2.4c2.5,0.4,4.9,0.7,7.4,1c1.9,0.3,4.4,0.3,5.8,1.7
		c1.4,1.4,1.7,3.7,2.2,5.5c0.6,2.1,1.1,4.2,1.6,6.3c1,4.3,1.9,8.5,2.6,12.8c1.6,9.1,2.8,18.2,3.6,27.4c1.7,18.5,2.1,37.1,1.9,55.7
		c0,2.2-0.1,4.5-0.1,6.7c0,1.9,3,1.9,3,0c0.4-18.6,0.2-37.2-1.2-55.8c-1.4-18-3.7-36.1-8.4-53.6c-0.5-1.9-1-4-2-5.7
		c-1-1.8-2.7-2.9-4.7-3.4c-2.2-0.5-4.5-0.7-6.7-1c-2.5-0.3-4.9-0.7-7.4-1.1c-9.9-1.5-19.7-3.2-29.5-5.3c-19-4.1-38.1-9.6-55.8-18
		c-8-3.8-15.7-8.6-21.2-15.7c-5.4-6.9-8.5-15.3-11.2-23.6c-0.7-2.1-1.3-4.2-2-6.3C587.9,654.5,585,655.3,585.6,657.1z"/>
</g>
<g>
	<path class="st4" d="M662.9,449.8c-7-1.4-2.9-15.8-4.8-27.4c-1.7-10.2-8.9-15.4-16.3-17c-0.3-0.1-0.6-0.1-0.9-0.2
		c-4.9,2.3-8.6,6.3-9.6,12.4C628.2,436.1,647.6,446.8,662.9,449.8z"/>
</g>
<g>
	<path class="st7" d="M624.3,402.6c0,0-4.7-9.1-11.2,1c-6.5,10.1,7.6,24.3,14.5,16.4c0,0,4.8,11.7,18.4,15.8
		c13.6,4,34.4,2.8,33.5-11.6c-0.9-14.4-7.3-38.5-7.3-38.5s-3.5,0.6-9.7-6.7C656.4,371.7,648.6,403.5,624.3,402.6z"/>
</g>
<g>
	<path d="M663,390.5c4.4,5.7,7,12.7,7.3,19.9c0.1,1.9,3.1,1.9,3,0c-0.4-8-3.2-15.7-8.2-22c-0.5-0.6-1.6-0.5-2.1,0
		C662.3,389,662.5,389.9,663,390.5z"/>
</g>
<g>
	<path class="st9" d="M658.9,416.9c-12.4-3-6.3,4.3-0.7,9.3c5.6,5,16.8-4.3,13.5-7.6C668.5,415.2,667.2,418.8,658.9,416.9z"/>
</g>
<g>
	<path d="M618,408.1C618.1,408.7,618,408.1,618,408.1C618,408.3,618,408.4,618,408.1C618.1,408.2,618.1,408.2,618,408.1
		C618,408.3,618,408.4,618,408.1c0.1,0,0.1,0,0.1,0c-0.2,0.3,0,0.1,0,0c0.2-0.2-0.2,0.1,0,0c0.1-0.1,0.2-0.1,0.3-0.2
		c0.3-0.2-0.2,0,0,0c0.1,0,0.2-0.1,0.3-0.1c-0.4,0.1-0.1,0,0,0c0.2,0,0.3,0,0,0c0.1,0,0.2,0.1,0.3,0.1c0.3,0.1-0.2-0.1,0.1,0
		c0.1,0.1,0.2,0.1,0.3,0.2c-0.3-0.2,0,0.1,0.1,0.1c0.1,0.1,0.2,0.2,0.3,0.3c-0.2-0.2,0.1,0.1,0.1,0.2c0.1,0.2,0.3,0.5,0.4,0.7
		c0,0.1,0,0.1,0,0c0,0.1,0.1,0.1,0.1,0.2c0,0.1,0.1,0.3,0.1,0.4c0.2,0.6,0.3,1.2,0.5,1.8c0.2,1.2,0.3,2.7,0.2,4.1
		c0,0.8,0.7,1.5,1.5,1.5c0.9,0,1.4-0.7,1.5-1.5c0.1-1.9,0-3.8-0.5-5.6c-0.4-1.5-0.9-3.1-2.1-4.2c-1.2-1.1-2.8-1.6-4.3-1
		c-0.8,0.3-1.4,0.8-1.9,1.4c-0.5,0.7-0.6,1.5-0.5,2.4c0.1,0.8,1.1,1.3,1.8,1C617.8,409.7,618.1,409,618,408.1z"/>
</g>
<g>
	<path class="st4" d="M609.6,544.8c0,0-28.2-61.8,1.3-48c27.9,13.1,9.5,62.1-2.1,78L609.6,544.8z"/>
</g>
<g>
	<path class="st7" d="M758.6,588.2c-1.7-5.9-15.3-3.9-15.3-3.9c-2.4-6.7-9.9-8.3-15.8-9.5c-3.7-0.7-11.2,5.5-16.4,10.4
		c-2.3-0.7-4.3-1.3-5.6-1.5c-6.4-1.1-86.6-34.5-86.6-34.5c-0.7-5.8-0.6-4.8-1.8-16.4H579c0,0,5.1,42.1,27.1,47.6
		c7.6,3.7,87.2,24.4,93.5,25.6c6.3,1.2,52,12.6,54.5,9.3C756.6,611.8,760.2,594.1,758.6,588.2z"/>
</g>
<g>
	<path d="M611.1,548.6c-4.7,1.1-8.7,4-11.5,7.9c-0.5,0.7-0.1,1.7,0.5,2.1c0.7,0.4,1.6,0.1,2.1-0.5c1.1-1.5,2.6-3.1,4.2-4.1
		c1.8-1.2,3.5-1.9,5.5-2.4c0.8-0.2,1.3-1.1,1-1.8C612.8,548.9,611.9,548.4,611.1,548.6z"/>
</g>
<g>
	<path class="st8" d="M583,459c0,0-16.7,12.2-14.3,73.6h48.4c0,0-1.1-45.4-6.6-63.2C605,451.8,591.8,450.1,583,459z"/>
</g>
<g>
	<path class="st4" d="M727.2,848h38.4c1.9,0,1.9-3,0-3h-38.4C725.2,845,725.2,848,727.2,848z"/>
</g>
<g>
	<path class="st7" d="M754.7,510.2c0,0,83.5-6.8,89.4-12.1c5.9-5.3,1.8-21.9,5.9-26.6c4.1-4.7,5.3-0.7,7.1-10.4
		c1.8-9.7,3.5-23.9,7.1-24.5c3.5-0.6,3.3,71,0,74.3c-3.3,3.3-103.2,37.9-112,37.3c-8.9-0.6-19.3-6.2-19.3-6.2L754.7,510.2z"/>
</g>
<g>
	<path class="st4" d="M450.4,824.3c3.1,12.8,9,24.7,17.2,34.9c1.2,1.5,3.3-0.6,2.1-2.1c-7.8-9.9-13.4-21.4-16.4-33.6
		C452.8,821.6,449.9,822.4,450.4,824.3z"/>
</g>
<g>
	<path class="st4" d="M461.5,843.4c23.6-12.6,47.3-25.2,71.7-36.3c6.1-2.8,12.3-5.5,18.5-8c5.8-2.4,11.7-4.4,17.3-7.1
		c5-2.4,9.7-5.6,13.3-10c3.1-3.9,5.3-8.3,7.1-12.9c4-10.6,5.6-22.2,11.1-32.2c0.9-1.7-1.7-3.2-2.6-1.5c-4.9,8.9-6.8,18.9-9.9,28.5
		c-1.5,4.7-3.3,9.3-6,13.5c-2.9,4.4-6.8,7.9-11.4,10.5c-5.4,3-11.3,5-16.9,7.3c-6.1,2.5-12.2,5-18.2,7.7
		c-12.1,5.4-24,11.2-35.8,17.2c-13.3,6.8-26.5,13.8-39.6,20.8C458.3,841.8,459.8,844.4,461.5,843.4z"/>
</g>
<g>
	<path class="st4" d="M599.4,645.1c1.6,9.9-0.1,20.1-4.7,29c-0.9,1.7,1.7,3.2,2.6,1.5c5-9.6,6.7-20.6,5-31.3
		C602,642.4,599.1,643.2,599.4,645.1z"/>
</g>
<g>
	<path class="st4" d="M604.9,582.4c-3.4,17.1-6.9,34.2-10.3,51.3c-0.4,1.9,2.5,2.7,2.9,0.8c3.4-17.1,6.9-34.2,10.3-51.3
		C608.2,581.3,605.3,580.5,604.9,582.4z"/>
</g>
<g>
	<rect x="51.4" y="932.3" class="st4" width="1147" height="3"/>
</g>
</svg>
